<svg width="89" height="89" viewBox="0 0 89 89" fill="none" xmlns="http://www.w3.org/2000/svg">
<g clip-path="url(#clip0_3_7)">
<path d="M50.7988 25.4912C67.9724 25.4912 87.1051 20.2575 87.1051 12.7456C87.1051 5.23374 67.9724 0 50.7988 0C33.6252 0 14.4926 5.24324 14.4926 12.7456C14.4926 20.248 33.6266 25.4912 50.7988 25.4912ZM28.8144 19.0661C27.9367 19.0661 27.2253 18.3547 27.2253 17.477C27.2253 16.6 27.9367 15.8886 28.8144 15.8886C29.6914 15.8886 30.4028 16.6 30.4028 17.477C30.4028 18.3547 29.6914 19.0661 28.8144 19.0661ZM69.3484 10.3928C70.2532 10.8273 70.8289 11.7423 70.8289 12.7456C70.8289 13.7496 70.2532 14.664 69.3484 15.0984C64.1038 17.3413 58.4539 18.4817 52.7497 18.4498H52.7321C52.1062 18.4674 51.462 18.4769 50.7988 18.4769C40.389 18.4769 34.359 16.1139 32.2492 15.0971C31.3444 14.6626 30.7687 13.7476 30.7687 12.7443C30.7687 11.7403 31.3444 10.8259 32.2492 10.3908C34.359 9.37389 40.389 7.01158 50.7988 7.01158C61.2086 7.01158 67.2399 9.37389 69.3484 10.3928ZM20.5524 11.371C21.2102 6.94777 31.6071 4.01796 34.7772 3.2251C35.3291 3.08254 35.9156 3.2475 36.3134 3.65615C36.7105 4.0648 36.8585 4.65538 36.701 5.20387C36.5428 5.75168 36.1036 6.17323 35.549 6.30764C29.5516 7.8092 23.9031 10.439 23.6947 11.8387C23.677 11.9589 23.9377 12.3852 24.8596 12.9377C25.3571 13.2249 25.6613 13.7584 25.6545 14.3327C25.6477 14.907 25.332 15.4331 24.8277 15.7087C24.3233 15.9843 23.7096 15.966 23.2229 15.6612C20.7187 14.1549 20.3936 12.4965 20.5524 11.371Z" fill="#9E9E9E"/>
<path d="M52.2732 15.2655C57.2198 15.2661 62.1297 14.4135 66.7872 12.7457C61.6614 10.9142 56.2403 10.048 50.7988 10.1906C45.3553 10.046 39.9329 10.9128 34.8057 12.7457C39.4638 14.4135 44.3751 15.2661 49.323 15.2655C50.2632 15.2431 51.2726 15.2431 52.2732 15.2655Z" fill="#9E9E9E"/>
<path d="M18.928 45.9178C25.3538 47.3562 31.9221 48.0595 38.506 48.0147C42.9781 48.0215 47.4447 47.7058 51.8714 47.0711C51.5109 47.0711 51.164 47.101 50.7988 47.101C43.849 47.1566 36.9162 46.3964 30.1442 44.8357C25.0408 43.6118 18.6897 42.0885 14.5211 37.5139C12.1058 34.705 10.5099 31.285 9.9071 27.6302C4.98155 29.8941 2.20108 32.625 2.20108 35.2725C2.20108 39.3522 8.76599 43.5344 18.928 45.9178Z" fill="#9E9E9E"/>
<path d="M6.82591 63.3676C6.34462 65.7557 6.32086 68.213 6.75599 70.6093C7.07707 72.2806 7.50202 73.9308 8.02743 75.5491C8.40757 77.0099 9.0511 78.3893 9.9261 79.62C11.4168 81.2241 13.2089 82.5193 15.1992 83.433C17.5527 84.5849 20.0107 85.5102 22.54 86.1958C25.5981 87.0443 28.7112 87.681 31.8569 88.1026C35.4221 88.5927 39.0131 88.8744 42.6115 88.9464C43.3372 88.9654 44.0608 88.9749 44.7817 88.9749C53.6696 89.2064 62.5269 87.8317 70.926 84.9169C73.2584 84.1131 75.4754 83.008 77.5214 81.63C81.5394 78.7443 83.0219 72.0694 83.0715 67.2315C83.083 65.6464 82.914 64.0647 82.5658 62.5177C77.6932 69.0731 62.833 73.7224 44.7817 73.7224C28.6698 73.7224 14.4926 69.9916 8.44694 64.2032C7.8842 63.9398 7.35539 63.652 6.82591 63.3676Z" fill="#9E9E9E"/>
<path d="M77.1494 39.8796C77.3558 39.7038 77.6056 39.5864 77.8724 39.5395C77.9348 39.5388 77.9966 39.5422 78.0584 39.5497C81.3133 38.503 84.1087 36.3681 85.9755 33.5041C87.0338 31.5063 87.8178 29.3755 88.3066 27.1693C89.1191 24.008 89.2047 20.7042 88.5557 17.5056C83.6512 24.0406 68.8128 28.6709 50.7988 28.6709C39.3959 28.6709 29.2719 26.8129 22.128 23.7928C21.9589 23.7521 21.7981 23.6835 21.6514 23.5892C18.3089 22.3082 15.3418 20.2059 13.0243 17.4771C12.6278 19.2298 12.4602 21.0266 12.5253 22.8221C12.5525 23.4575 12.6095 24.1363 12.6842 24.8369C12.7527 25.0412 12.7785 25.2577 12.7602 25.4722C13.1023 29.1107 14.5367 32.5612 16.8752 35.3688C20.3868 39.2205 26.2118 40.6121 30.8923 41.7403C37.4192 43.2432 44.1002 43.9743 50.7974 43.9186C57.7615 43.9838 64.7079 43.1889 71.4778 41.5516C73.4016 41.0682 75.3241 40.5299 77.1494 39.8796Z" fill="#9E9E9E"/>
<path d="M73.9718 60.911C72.0637 62.4302 69.9491 63.669 67.6914 64.5909C61.7326 67.019 55.4406 68.5315 49.0291 69.0766C45.5345 69.4458 42.023 69.6291 38.5094 69.6264C35.7459 69.6264 32.9926 69.5151 30.3248 69.2972C29.6466 69.2415 28.9997 69.1655 28.3406 69.0969C33.7657 70.0765 39.269 70.5605 44.7817 70.5442C61.9539 70.5442 81.0866 65.3111 81.0866 57.802C80.9162 56.0384 80.008 54.4296 78.5858 53.3719C77.8296 56.2875 76.2235 58.9118 73.9718 60.911Z" fill="#9E9E9E"/>
<path d="M2.86837 55.5855C3.32454 56.5739 3.95516 57.4713 4.73038 58.2357C5.32367 58.7726 5.97467 59.2417 6.67182 59.6341C6.70237 59.6558 6.74038 59.6673 6.76889 59.6911C7.06418 59.8676 7.35064 60.0454 7.66019 60.2219C8.36752 60.6251 9.10948 61.0019 9.8847 61.3623L9.92746 61.38C12.3441 62.4688 14.853 63.3384 17.4251 63.9779C21.741 65.0776 26.1446 65.7978 30.5855 66.1304C36.6168 66.6158 42.6801 66.5445 48.6985 65.9179C54.791 65.4041 60.7707 63.9738 66.4362 61.6753C68.4204 60.8709 70.2797 59.7882 71.9591 58.4597C75.1367 55.8394 76.1251 51.0415 76.6315 47.1552C76.7896 45.8987 76.831 44.6314 76.7557 43.3674C75.2589 43.8439 73.7451 44.2621 72.2687 44.6381C71.4568 44.8452 70.5988 44.9993 69.7645 45.1785C68.3111 45.917 66.8116 46.5626 65.2761 47.1104C65.2333 47.1267 65.1872 47.141 65.1431 47.1532C56.5498 49.969 47.5472 51.3341 38.506 51.1922C31.6763 51.2343 24.8643 50.5005 18.201 49.0043C9.50048 46.9645 3.46573 43.8249 0.723281 40.0629C0.539998 40.8829 0.40627 41.7131 0.321417 42.5494C0.115733 44.3734 0.16936 46.2178 0.480261 48.0275C0.95476 50.6369 1.75713 53.1764 2.86837 55.5855Z" fill="#9E9E9E"/>
</g>
<defs>
<clipPath id="clip0_3_7">
<rect width="89" height="89" fill="white"/>
</clipPath>
</defs>
</svg>
